<?xml version="1.0" encoding="UTF-8" standalone="no"?>
<!-- Created with Inkscape (http://www.inkscape.org/) -->

<svg
   xmlns:dc="http://purl.org/dc/elements/1.1/"
   xmlns:cc="http://creativecommons.org/ns#"
   xmlns:rdf="http://www.w3.org/1999/02/22-rdf-syntax-ns#"
   xmlns:svg="http://www.w3.org/2000/svg"
   xmlns="http://www.w3.org/2000/svg"
   xmlns:sodipodi="http://sodipodi.sourceforge.net/DTD/sodipodi-0.dtd"
   xmlns:inkscape="http://www.inkscape.org/namespaces/inkscape"
   width="1000"
   height="600"
   id="svg3954"
   version="1.1"
   inkscape:version="0.48.5 r10040"
   sodipodi:docname="381 FOSSASIA 2016 #IoT T-shirt Design Contest_next10_send4-@davro snsd.svg">
  <defs
     id="defs3956">
    <clipPath
       clipPathUnits="userSpaceOnUse"
       id="clipPath3909">
      <path
         style="color:#000000;fill:#ffffff;stroke:#000000;stroke-width:2;stroke-miterlimit:4;stroke-dasharray:none;marker:none;visibility:visible;display:inline;overflow:visible;enable-background:accumulate"
         d="m 100,552.36218 0,100 0,100 0,100 0,100 100,0 0,-100 0,-100 0,-100 0,-100 -100,0 z m 500,0 0,100 100,0 0,100 0,100 0,100 100,0 0,-100 0,-100 0,-100 100,0 0,-100 -100,0 -100,0 -100,0 z m 0,100 -100,0 -100,0 -100,0 0,100 0,100 0,100 100,0 100,0 100,0 0,-100 0,-100 0,-100 z m -200,100 100,0 0,100 -100,0 0,-100 z"
         id="path3911"
         inkscape:connector-curvature="0" />
    </clipPath>
  </defs>
  <sodipodi:namedview
     id="base"
     pagecolor="#ffffff"
     bordercolor="#666666"
     borderopacity="1.0"
     inkscape:pageopacity="0.0"
     inkscape:pageshadow="2"
     inkscape:zoom="0.55507882"
     inkscape:cx="500"
     inkscape:cy="300"
     inkscape:document-units="px"
     inkscape:current-layer="layer1"
     showgrid="false"
     inkscape:window-width="1366"
     inkscape:window-height="688"
     inkscape:window-x="-8"
     inkscape:window-y="-8"
     inkscape:window-maximized="1"
     showguides="true"
     inkscape:guide-bbox="true"
     inkscape:snap-global="false" />
  <metadata
     id="metadata3959">
    <rdf:RDF>
      <cc:Work
         rdf:about="">
        <dc:format>image/svg+xml</dc:format>
        <dc:type
           rdf:resource="http://purl.org/dc/dcmitype/StillImage" />
        <dc:title />
      </cc:Work>
    </rdf:RDF>
  </metadata>
  <g
     inkscape:label="Layer 1"
     inkscape:groupmode="layer"
     id="layer1"
     transform="translate(0,-452.36218)">
    <path
       style="color:#000000;fill:#1000ff;fill-opacity:1;fill-rule:nonzero;stroke:none;stroke-width:20;marker:none;visibility:visible;display:inline;overflow:visible;enable-background:accumulate"
       d="m 328.57745,551.53984 c -34.0003,16.03651 -63.18601,41.64816 -83.70815,74.29674 l 15.6001,10.27827 c 27.54931,-43.64001 71.53174,-73.53076 121.08219,-83.31079 l -2.89079,-17.13243 c -16.14907,2.82898 -31.74547,7.61772 -46.48439,14.21168 -1.20665,0.53985 -2.40402,1.09293 -3.59896,1.65658 z m 16.82408,27.05777 c -29.8436,14.03531 -55.33817,36.63579 -72.98625,65.38318 l 15.07916,9.90005 c 22.04251,-35.77713 57.56226,-61.76066 99.04471,-71.31327 l -2.78132,-16.64206 c -13.34833,2.70805 -26.22296,6.96582 -38.3563,12.6721 z m 11.52797,30.73146 c -23.78785,11.17716 -44.16164,29.06881 -58.47247,51.78876 l 15.14029,9.94917 c 17.88226,-28.24321 46.10448,-48.18163 78.45105,-55.49974 L 389.2403,598.783 c -11.25356,2.18697 -22.10321,5.74987 -32.3108,10.54607 z"
       id="path3971"
       inkscape:connector-curvature="0" />
    <path
       style="color:#000000;fill:#1000ff;fill-opacity:1;fill-rule:nonzero;stroke:none;stroke-width:20;marker:none;visibility:visible;display:inline;overflow:visible;enable-background:accumulate"
       d="m 467.59914,626.63097 c 0.90085,3.85888 1.11232,8.43079 0.61782,13.36027 2.18247,-5.24348 5.08202,-9.88268 8.34052,-13.24443 -2.99289,-0.10824 -5.9664,-0.15641 -8.95834,-0.11584 z m 28.38093,1.89206 c 0.72772,2.29568 0.65525,5.18392 -1.15841,8.72665 11.9391,2.1523 10.20138,10.41071 10.11674,10.81178 -1.81136,8.5778 -13.40141,12.25296 -27.4542,10.5801 12.92643,4.44489 23.19447,13.35073 21.39188,21.81663 -0.0107,0.0498 -4.63195,11.26081 -15.75431,5.7148 -2.06027,11.93919 -10.33217,10.27477 -10.73455,10.19396 -8.57651,-1.7206 -12.33263,-13.16725 -10.81178,-27.14529 -4.2702,12.44614 -12.63583,22.2218 -20.8899,20.69684 -0.0501,-0.009 -11.41577,-4.31421 -6.13955,-15.56124 -12.00697,-1.74075 -10.53518,-10.06098 -10.46426,-10.46426 1.52687,-8.70514 13.11401,-12.75389 27.37697,-11.46821 -12.17238,-4.71661 -21.75638,-13.38731 -20.65822,-21.46911 -37.42995,8.32124 -72.54714,28.59946 -99.23669,60.39152 -52.62448,62.68522 -56.23988,150.74349 -14.75036,216.62173 0.064,0.0868 0.12773,0.18314 0.19307,0.27029 5.67701,7.57136 16.43535,16.40012 27.84033,21.04436 14.75682,6.00925 30.64443,5.90978 39.57884,4.17025 8.93346,-1.74017 38.13202,-5.55787 56.22125,1.00396 15.991,5.80073 29.35113,19.2253 40.6214,33.40067 13.26986,15.78424 -5.99479,26.26137 -18.41864,11.19792 -14.05968,-14.8047 -20.40021,-22.13935 -29.73239,-25.56214 -12.63722,-4.63502 -34.05283,-0.20572 -42.08871,1.77622 -5.48352,1.35264 -17.96476,1.70021 -31.81753,-0.54059 7.4469,5.80396 15.19429,10.94198 23.20672,15.40679 -0.82904,-4.15169 -1.52371,-8.25661 -2.08513,-12.16325 6.75775,0.21245 12.27182,-0.94981 19.07507,-2.39404 0.55798,8.67519 2.78475,17.907 6.64152,25.56214 5.17524,1.96444 10.42658,3.66933 15.71569,5.13559 l 16.33351,-21.1602 c 1.97724,-2.55768 5.46635,-3.16463 7.76131,-1.39008 2.29569,1.77438 2.47876,5.24217 0.50198,7.79993 l -13.47611,17.4533 c 4.41263,0.9251 8.83109,1.68903 13.28304,2.27819 l 7.1435,-9.49892 c 1.94695,-2.58078 5.42744,-3.20237 7.7227,-1.4287 2.29512,1.7747 2.5252,5.21858 0.5792,7.79993 l -3.24353,4.2861 c 27.26938,1.73612 54.75705,-2.68047 80.23885,-13.16721 -5.19745,-2.90385 -7.58804,-9.26007 -5.32866,-14.94342 L 584.1733,836.30227 c 1.84432,-4.63964 6.24208,-7.47369 10.92762,-7.56824 1.56185,-0.0315 3.16433,0.23469 4.71085,0.84949 l 47.45599,18.882 c 13.65046,-63.93635 -7.1512,-133.19718 -60.04399,-178.43298 -26.96835,-23.06428 -58.66008,-36.77564 -91.2437,-41.50951 z m 70.93299,31.27694 c 2.2834,0.0521 4.60276,1.02436 6.64153,2.47126 3.10668,2.2048 5.86697,5.64574 7.83854,9.92367 1.97156,4.27787 2.8083,8.63366 2.47126,12.43355 -0.33704,3.79989 -1.94366,7.30675 -5.25144,8.84249 -3.30783,1.53578 -7.04866,0.50577 -10.15535,-1.699 -3.10668,-2.20476 -5.86696,-5.64573 -7.83854,-9.92367 -1.97164,-4.27788 -2.80832,-8.63363 -2.47126,-12.43354 0.33706,-3.79992 1.94369,-7.3453 5.25144,-8.88111 0.82696,-0.38396 1.68364,-0.61163 2.54849,-0.69504 0.32431,-0.0312 0.63914,-0.046 0.96533,-0.0386 z m -0.42474,4.98114 c -0.37539,0.0274 -0.70464,0.0927 -1.00395,0.23168 -1.19705,0.55579 -2.19126,2.10526 -2.43266,4.82669 -0.24139,2.72143 0.39574,6.34196 2.04652,9.92367 1.65074,3.58177 3.99737,6.41792 6.21677,7.99299 2.21941,1.57507 4.01554,1.79152 5.21283,1.23563 1.19698,-0.55574 2.19127,-2.10524 2.43265,-4.82669 0.24138,-2.72144 -0.3958,-6.34196 -2.04652,-9.92366 -1.65072,-3.58177 -3.99737,-6.37929 -6.21677,-7.95439 -1.10971,-0.78754 -2.09582,-1.2401 -2.97324,-1.4287 -0.43871,-0.0943 -0.86025,-0.10467 -1.23563,-0.0772 z m -16.44935,8.99694 c 1.69387,-0.0352 3.38742,0.59412 4.78807,1.58316 2.13431,1.50711 3.93083,3.82292 5.17421,6.71875 l 1.46731,3.4366 -0.46336,0 c 0.3925,1.75433 0.59505,3.48099 0.42475,5.09698 -0.28095,2.66583 -1.38329,5.2841 -3.82274,6.56429 -2.43945,1.28014 -5.27941,0.54173 -7.41379,-0.96533 -0.67788,-0.47865 -1.25297,-1.1389 -1.85345,-1.77622 1.37348,4.93038 0.19307,10.22245 -4.09303,12.47216 -2.28823,1.20075 -4.9273,0.99512 -7.1435,-0.0386 0.22643,0.40929 0.50475,0.75376 0.69505,1.19702 1.06715,2.48549 1.39436,5.08687 0.96533,7.45241 -0.42902,2.36553 -1.66984,4.62175 -3.89996,5.79202 -0.59608,0.31285 -1.22129,0.51211 -1.85345,0.61782 1.17587,0.86175 2.33701,1.71828 3.47522,2.62571 0.42148,-2.12328 1.02599,-4.17452 1.89206,-6.13954 3.22076,-7.30758 8.87855,-13.48907 14.75036,-17.95528 4.62274,-3.51579 9.83168,-5.53268 15.1751,-5.98509 0.5566,-0.0471 1.10165,-0.0644 1.66038,-0.0772 8.38098,-0.19297 16.95421,3.46842 23.90176,11.39098 6.83637,7.79663 6.2711,16.80587 5.25143,25.21462 -1.01967,8.40875 -2.34537,16.48455 1.50593,24.44234 2.668,5.51263 10.67871,11.15247 18.61171,16.91272 7.93299,5.76024 15.99461,11.74126 17.68498,20.23347 0.79429,3.98858 -0.24775,7.83764 -2.04652,11.00485 -1.79877,3.16721 -4.34479,5.71895 -6.95043,7.4524 -5.00893,3.33251 -11.61664,2.92152 -17.02855,0.46336 -6.08734,-2.76488 -10.64349,-7.94413 -14.90481,-13.32165 -4.26132,-5.37752 -8.25905,-11.00618 -12.70384,-14.98204 -3.45744,-3.09269 -7.57114,-6.19809 -11.89296,-9.38308 4.99313,14.34538 7.07328,30.01246 5.56034,46.14313 -5.59326,59.63427 -58.03149,103.37618 -117.11474,97.73077 -44.554,-4.25715 -80.17201,-35.40035 -92.59517,-76.02998 -4.68401,-0.14056 -9.56677,-0.44927 -13.70779,-0.8495 -2.65306,-0.25642 -4.97262,-0.54245 -6.79598,-0.8495 -0.91168,-0.15352 -1.68593,-0.32313 -2.35542,-0.50197 -0.65914,-0.17608 -1.14088,-0.15825 -2.04652,-0.92673 l 0,-0.0386 c -0.95442,-0.8394 -1.56177,-2.36915 -1.66038,-3.93858 -0.0993,-1.58169 0.002,-3.65807 0.23168,-7.10488 0.57466,-8.63038 1.17089,-36.30048 1.04257,-48.84608 l -0.0772,-6.10093 -4.67223,0.65643 c -8.52854,1.18303 -16.84023,-1.5762 -21.35327,-4.94253 -0.43592,-0.32517 -0.87148,-0.60368 -1.35147,-1.1584 -0.47999,-0.55473 -0.89262,-1.42341 -1.00395,-2.20097 -0.22275,-1.55512 0.12156,-2.76516 0.54059,-5.1356 0.43993,-2.48907 2.56681,-10.80126 5.05837,-20.3107 2.49155,-9.50943 5.25682,-19.83948 6.83459,-25.21461 0.36515,-1.24393 0.86144,-2.41083 1.81483,-3.35938 0.95339,-0.94854 2.11655,-1.42205 3.35938,-1.77622 2.07708,-0.59188 8.3535,-3.31899 13.86224,-6.0237 2.75437,-1.35235 5.35217,-2.71711 7.33657,-3.82274 0.9922,-0.55281 1.85653,-1.05621 2.43265,-1.4287 0.43254,-0.27936 0.7622,-0.60565 0.73365,-0.54059 1.43584,-1.80911 3.63282,-3.04917 6.60291,-3.93858 3.07865,-0.92191 7.13426,-1.57275 12.81968,-2.20097 4.45182,-0.49191 8.25283,-0.80308 11.46821,-0.84949 1.0718,-0.0155 2.06242,-0.011 3.01186,0.0386 3.79775,0.1986 6.65479,0.95844 8.84249,2.47126 2.19691,1.51935 6.06203,2.96052 18.57309,6.5643 2.90833,0.83771 5.76589,1.67753 7.99299,2.35542 2.22711,0.6779 3.61677,1.07729 4.47917,1.4287 1.38878,0.566 1.77706,1.37583 2.43265,2.39404 0.39818,0.61842 0.86006,1.42866 1.35147,2.35542 14.57882,-5.39194 30.54282,-7.6764 47.03125,-6.10093 15.75451,1.50535 30.39691,6.36469 43.28573,13.82363 -0.0499,-0.10559 -0.10798,-0.20066 -0.15446,-0.30891 -1.06722,-2.48547 -1.35572,-5.08687 -0.92672,-7.4524 0.429,-2.36553 1.66999,-4.62162 3.89996,-5.79203 1.97158,-1.03457 4.19186,-0.79541 6.10094,0.0772 -0.26277,-0.45755 -0.63462,-0.81245 -0.8495,-1.31286 -2.30826,-5.37589 -1.19166,-11.79551 3.62967,-14.32561 2.41067,-1.2651 5.2469,-1.03526 7.52963,0.15446 0.79346,0.41354 1.44209,1.04046 2.12374,1.66038 -0.89524,-2.51057 -1.36238,-5.03533 -1.11979,-7.33657 0.28102,-2.66583 1.38335,-5.28403 3.82274,-6.56429 0.60987,-0.32004 1.25015,-0.48863 1.89206,-0.5792 0.24071,-0.034 0.49167,-0.0336 0.73366,-0.0386 z m 0.0772,4.90392 c -0.13988,0.0238 -0.27801,0.0591 -0.38613,0.11584 -0.43257,0.22702 -1.06208,1.018 -1.23563,2.66433 -0.17356,1.64633 0.14636,3.88516 1.08117,6.06232 0.93486,2.17711 2.30008,3.84248 3.47522,4.67223 1.17513,0.82975 1.80711,0.80615 2.23958,0.5792 0.43226,-0.22684 1.06213,-1.01796 1.23563,-2.66433 0.17351,-1.64637 -0.14632,-3.88519 -1.08117,-6.06232 -0.93477,-2.17708 -2.30015,-3.84247 -3.47522,-4.67223 -0.58754,-0.41488 -1.02646,-0.62263 -1.39009,-0.69504 -0.18181,-0.0363 -0.32347,-0.0238 -0.46336,0 z m -11.39098,11.85434 c -0.48284,-0.0206 -0.95023,0.0781 -1.39009,0.30891 -1.75923,0.9232 -2.85059,4.50157 -1.35147,7.99299 0.74961,1.74572 1.92935,2.96815 3.05047,3.55245 1.12111,0.58429 2.05478,0.61612 2.93462,0.15445 1.75837,-0.92294 2.88911,-4.50177 1.39009,-7.99299 -0.74969,-1.74587 -1.96802,-2.96817 -3.08908,-3.55245 -0.56053,-0.29214 -1.0617,-0.44272 -1.54454,-0.46336 z m -143.33331,6.294 c 0.0539,0.17436 0.20956,0.32568 0.23168,0.50198 0.1819,1.45419 -0.2899,2.61125 -0.92672,3.70689 -1.01602,1.74806 -2.78229,3.37739 -4.8653,4.8653 l 0.0386,0.19307 -1.58315,0.96534 c -1.96626,1.17939 -4.51011,1.82531 -7.18211,2.2782 -2.67201,0.45288 -5.23762,0.70492 -7.45241,0.15445 -3.18941,-0.79272 -6.32977,-2.43788 -8.72665,-4.20887 -1.19844,-0.88549 -2.22069,-1.7827 -2.97324,-2.8574 -0.37627,-0.53735 -0.70489,-1.13897 -0.8495,-1.96929 -0.0781,-0.4479 -0.0322,-0.97137 0.11584,-1.50593 -0.90219,0.46103 -1.56763,0.94168 -1.93067,1.4287 -0.71794,0.96325 -1.1649,1.113 -1.89206,1.58316 -0.72716,0.47016 -1.61386,0.99787 -2.66433,1.58315 -2.10095,1.17056 -4.79463,2.55781 -7.60686,3.93858 -5.62448,2.76154 -11.50254,5.42913 -14.67313,6.33261 -0.92299,0.26303 -1.15532,0.42203 -1.23563,0.50198 -0.0804,0.08 -0.26816,0.34616 -0.54059,1.27424 -1.53883,5.24247 -4.31132,15.57702 -6.79598,25.06016 -2.48466,9.48315 -4.72651,18.48388 -4.98114,19.92457 -0.39429,2.2308 -0.45348,3.27517 -0.46336,3.39799 0.0798,0.0675 0.11198,0.10441 0.38613,0.30891 3.04528,2.27151 10.7847,4.93971 17.7236,3.97719 l 3.55244,-0.50198 1.35147,-6.79598 -0.92672,-12.3177 4.90391,-0.65643 0.0386,0.27029 2.23958,12.16326 0.0386,0.34752 -0.0386,0.34752 -0.88811,9.42169 0.0772,7.993 c 0.13064,12.77225 -0.47593,40.14252 -1.08118,49.23221 -0.22674,3.40404 -0.29606,5.46239 -0.23168,6.48707 0.0186,0.29561 0.004,0.35934 0,0.42474 0.0249,0.009 0.0428,0.0294 0.0772,0.0386 0.42201,0.11274 1.0746,0.24847 1.89207,0.38613 1.63493,0.27533 3.91109,0.52331 6.48706,0.77227 3.55063,0.34317 7.71492,0.64955 11.77712,0.81089 -3.00042,-11.80859 -4.02262,-24.34973 -2.81878,-37.1848 3.86516,-41.20966 30.07384,-74.82963 65.41126,-89.815 -0.34938,-0.62524 -0.65536,-1.10584 -0.88811,-1.46732 -0.21749,-0.33779 -0.37847,-0.53799 -0.46336,-0.61781 -0.29347,-0.10097 -1.71912,-0.58022 -3.74551,-1.19702 -2.19622,-0.6685 -4.99148,-1.48564 -7.87715,-2.31681 -12.57853,-3.62321 -16.90659,-5.09205 -20.04041,-7.25934 z m -9.46031,1.58316 c -2.63268,0.0475 -5.80644,0.25971 -8.8811,0.5792 -3.07466,0.31948 -6.04784,0.74028 -8.3019,1.19702 -0.69211,0.14024 -1.13665,0.28635 -1.66038,0.42475 0.28564,0.26027 0.38979,0.41244 0.77227,0.69504 1.85128,1.36786 4.66342,2.81996 6.98904,3.39799 0.6729,0.16724 3.1182,0.15606 5.40589,-0.23169 2.25394,-0.38202 4.57388,-1.11827 5.4445,-1.62176 l 0.0386,-0.0386 c 0.01,-0.006 0.0287,0.006 0.0386,0 2.22911,-1.34314 3.88589,-3.03832 4.55639,-4.13164 -0.87229,-0.12931 -2.24227,-0.30922 -4.40194,-0.27029 z m 184.22501,0.69504 c -0.45779,0.0144 -0.93371,0.0333 -1.39009,0.0772 -4.38125,0.42209 -8.70519,2.20104 -12.66523,5.21282 -5.33471,4.05767 -10.44233,9.71592 -13.20581,15.98599 -1.10636,2.51022 -1.8543,5.10975 -2.12374,7.76131 11.40681,10.10193 20.61252,22.5792 26.95222,36.56698 6.61271,4.96967 13.3601,9.84962 18.882,14.78897 5.05937,4.5256 9.10719,10.37892 13.24443,15.59986 4.13724,5.22094 8.31648,9.76344 13.08998,11.93157 4.17298,1.89542 9.16904,1.96625 12.24047,-0.0772 1.93159,-1.28504 4.04092,-3.38862 5.40589,-5.79202 1.36498,-2.40341 2.0183,-5.034 1.50593,-7.60686 -1.14515,-5.75304 -7.9623,-11.4971 -15.79292,-17.18301 -7.83062,-5.68591 -16.45099,-11.19017 -20.11763,-18.76616 -4.61347,-9.53262 -2.9684,-18.98332 -1.96929,-27.22252 0.99911,-8.23919 1.48564,-15.03503 -4.05442,-21.35326 -6.16082,-7.02542 -13.13501,-10.14012 -20.00179,-9.92367 z m -40.77586,7.10488 c -0.33823,-0.0324 -0.65324,0.0496 -0.92672,0.19307 -0.54671,0.28694 -1.07972,0.99267 -1.31286,2.2782 -0.23314,1.28552 -0.0814,3.0052 0.61782,4.63362 0.6992,1.62863 1.76269,2.80959 2.70294,3.35937 0.94026,0.54978 1.57687,0.51871 2.12374,0.23168 0.5467,-0.28687 1.07972,-0.99272 1.31286,-2.27819 0.23314,-1.28548 0.0814,-3.00516 -0.61781,-4.63362 -0.69922,-1.6287 -1.76267,-2.77098 -2.70295,-3.32077 -0.47013,-0.27489 -0.85879,-0.43098 -1.19702,-0.46336 z m -58.88558,17.87805 c -7.97417,0.098 -15.89064,1.20022 -23.47701,3.32076 -46.46316,12.82994 -73.74716,60.94716 -60.9321,107.46137 12.8159,46.51788 60.84715,73.7997 107.30691,60.97072 5.41365,-1.49511 10.55266,-3.47121 15.40679,-5.86926 l 6.17816,12.93553 13.93947,-20.04041 13.66918,-20.15625 -24.24928,-2.0079 -24.28789,-1.85345 7.10489,15.05927 c -3.91209,1.94438 -8.09993,3.54217 -12.47216,4.74946 -36.98993,10.21412 -75.24965,-11.50638 -85.45168,-48.53717 -10.20301,-37.03374 11.50841,-75.31476 48.49856,-85.5289 39.51372,-6.92072 72.20937,10.96138 79.08044,37.91846 5.12232,19.74561 0.98306,34.00949 -19.49981,40.54417 l -17.18301,-62.3608 -15.7157,4.32471 2.97324,10.73455 c -6.79829,-6.90594 -20.14904,-7.88246 -28.11062,-5.75341 -10.62914,2.9351 -18.25113,9.17198 -22.82058,18.80478 -4.57033,9.63258 -5.16706,20.72281 -1.73761,33.16899 3.42857,12.44633 9.70211,21.62762 18.49587,27.57004 8.83874,5.86296 18.46214,7.19961 29.15319,4.24749 8.1673,-2.38063 20.13739,-11.26144 21.19881,-18.03251 l 3.59106,11.73851 c 48.65941,-11.77528 56.24328,-43.24102 49.27082,-69.81321 -10.14748,-35.63135 -45.37524,-54.0201 -79.92994,-53.59554 z m -5.05837,61.54992 c 3.97393,-0.2007 7.62094,1.03674 11.00485,3.66828 4.55648,3.42935 8.00339,8.99642 10.07812,16.52658 2.09094,7.59267 2.05944,14.07094 0,19.4612 -2.07742,5.32818 -5.89766,8.74363 -11.4296,10.27119 -5.59425,1.54511 -10.58619,0.53565 -15.09787,-2.97323 -4.44975,-3.52586 -7.85341,-9.06495 -9.96229,-16.71965 -2.07359,-7.53006 -1.9938,-14.01906 0.0386,-19.26814 2.07678,-5.32802 5.80532,-8.76075 11.27514,-10.27119 1.39852,-0.38607 2.76838,-0.62814 4.09303,-0.69504 z m 132.48291,51.35595 c -4.31272,0.077 -8.35424,2.6721 -10.03951,6.91182 l -46.49065,116.96029 c -2.24714,5.65311 0.54732,12.05651 6.25539,14.32561 l 0.0386,0 c 3.32683,-1.58941 6.60552,-3.29504 9.84644,-5.09698 l -7.7227,-3.05047 c -2.35693,-0.93698 -3.59089,-3.27008 -2.81878,-5.21282 l 5.36728,-13.59195 c 0.57926,-1.45695 2.16322,-2.27579 3.89996,-2.20097 0.57892,0.0249 1.14841,0.1519 1.73761,0.38613 l 14.09392,5.59896 c 2.35681,0.93688 3.66817,3.27033 2.89602,5.21282 l -1.00395,2.54849 c 3.37823,-2.38872 6.68518,-4.886 9.92366,-7.52963 -1.06287,-1.12026 -1.49018,-2.61839 -0.96533,-3.93858 l 5.40589,-13.55334 c 0.57925,-1.45697 2.12457,-2.3144 3.86135,-2.23958 0.57893,0.0249 1.18704,0.15191 1.77622,0.38614 l 7.4524,2.97324 c 0.73903,-0.78624 1.47304,-1.59184 2.20097,-2.39404 l -8.53358,-3.39799 c -2.35683,-0.93678 -3.62956,-3.2316 -2.8574,-5.17421 l 5.40589,-13.59195 c 0.57908,-1.45683 2.12455,-2.27581 3.86135,-2.20097 0.57893,0.0249 1.18707,0.15188 1.77622,0.38614 l 14.09393,5.59895 c 0.24103,0.0958 0.47772,0.22441 0.69504,0.34752 0.93641,-1.33329 1.84515,-2.66465 2.74156,-4.0158 l -41.35506,-16.44935 c -3.64589,-1.44943 -6.14748,-5.38301 -4.71084,-8.99695 l 16.87409,-42.43623 c 0.61143,-1.53821 2.71802,-3.6851 6.02371,-3.74551 1.1019,-0.0201 2.3499,0.1912 3.7069,0.73366 l 43.63325,17.4533 c 0.26048,-0.96493 0.52784,-1.92805 0.77227,-2.89601 L 602.24442,837.8082 c -1.42701,-0.56729 -2.88714,-0.83656 -4.32472,-0.81089 z m 0.92673,8.37913 c -1.5941,-0.006 -2.31454,0.79795 -2.78017,1.96929 l -14.63452,36.76005 c -0.74497,1.87428 -2.61054,4.66703 2.39404,6.68014 l 39.92636,16.06321 c 8.71099,-14.01408 15.35147,-28.88721 19.92456,-44.21245 l -40.89169,-16.25629 c -1.71232,-0.68072 -2.98213,-1.00029 -3.93858,-1.00395 z m -260.64112,13.55334 c 2.05871,-0.1075 4.41837,0.29517 7.06627,1.39009 13.23324,5.58757 27.94714,17.14951 37.68677,32.55118 8.04151,12.71633 12.49963,25.98047 14.94343,36.76005 -6.21275,0.53215 -13.24594,1.71688 -20.61961,2.5871 -1.56522,-9.08831 -5.48069,-19.18439 -12.47216,-29.34626 -8.33281,-12.11178 -21.93374,-22.02907 -30.73635,-24.48095 -6.01886,-3.4434 -6.7894,-10.78096 -3.47521,-15.40679 1.61121,-2.24875 4.17568,-3.87526 7.60686,-4.05442 z m -4.90392,21.81663 c 1.02817,0.0166 2.0354,0.33849 2.89602,1.00395 2.29539,1.77423 2.63315,5.24195 0.65643,7.79993 L 325.11533,904.764 c -1.97717,2.55773 -5.46624,3.20336 -7.76131,1.4287 -2.29537,-1.7742 -2.47863,-5.28084 -0.50198,-7.83854 l 11.73851,-15.1751 c 1.23559,-1.59892 2.99723,-2.4604 4.71084,-2.43265 z m -0.11584,3.66828 c -0.71723,0.002 -1.29038,0.46388 -1.7376,1.00395 0.42922,-0.52464 0.99183,-0.92487 1.69899,-0.92672 0.62332,-0.0587 1.08152,0.35461 1.27425,0.88811 -0.17284,-0.56067 -0.58596,-1.02652 -1.23564,-0.96534 z m 1.23564,0.96534 c 0.0876,0.2425 0.099,0.5117 0.0772,0.77227 0.0356,-0.25874 -0.001,-0.52607 -0.0772,-0.77227 z m -2.97324,0.0386 c -0.13983,0.16885 -0.27402,0.31935 -0.38614,0.50198 -3.17568,4.08477 -6.3431,8.13972 -9.49892,12.24048 -0.39805,0.55293 -0.89991,1.14629 -1.31286,1.69899 -0.41501,0.55096 -0.81121,1.09355 -1.11979,1.69899 -0.0674,0.25018 -0.0513,0.48965 0,0.73366 -0.0328,-0.2256 -0.0216,-0.47127 0.0386,-0.69504 0.61634,-1.21189 1.59827,-2.25328 2.39404,-3.35938 3.15988,-4.09731 6.32389,-8.1552 9.49892,-12.24048 0.11771,-0.19168 0.24306,-0.40432 0.38614,-0.5792 z m -12.31771,16.8741 c 0.0214,0.10195 0.0372,0.21441 0.0772,0.30891 -0.0377,-0.10577 -0.0608,-0.19611 -0.0772,-0.30891 z m 31.54723,-10.15535 c 1.04512,0.0141 2.07391,0.33876 2.93463,1.00395 2.29505,1.77464 2.55635,5.24226 0.5792,7.79993 l -14.32561,18.53448 c -1.97674,2.55778 -5.42709,3.20347 -7.7227,1.4287 -2.29485,-1.77452 -2.55623,-5.28108 -0.5792,-7.83854 l 14.32561,-18.53448 c 1.2355,-1.59881 3.0462,-2.41762 4.78807,-2.39404 z m 223.76523,6.48707 c 0.2096,-0.0181 0.43933,-0.009 0.65643,0 0.57893,0.0249 1.18701,0.15188 1.77622,0.38613 l 14.09392,5.59896 c 2.35684,0.93693 3.6297,3.27029 2.8574,5.21282 l -5.40589,13.55334 c -0.77216,1.9426 -3.28072,2.75184 -5.63757,1.81484 l -14.09392,-5.59896 c -2.35689,-0.93688 -3.62959,-3.23162 -2.8574,-5.17421 l 5.40589,-13.59195 c 0.50679,-1.27478 1.73769,-2.07444 3.20492,-2.20097 z m 1.19702,2.5871 c -1.16909,0.11209 -2.17467,0.77755 -2.58711,1.81484 l -4.40194,11.04346 c -0.62832,1.58053 0.36684,3.42563 2.23959,4.17026 l 11.19791,4.47916 c 1.87285,0.74442 3.8894,0.0748 4.51778,-1.50592 l 4.40194,-11.04347 c 0.62842,-1.58071 -0.40546,-3.46431 -2.2782,-4.20887 l -11.19791,-4.44055 c -0.46818,-0.18611 -0.92922,-0.29178 -1.39009,-0.30891 -0.17283,-0.006 -0.33497,-0.016 -0.50197,0 z m -210.59803,8.5722 c 1.0451,0.0141 2.07392,0.33886 2.93463,1.00395 2.29507,1.77466 2.55624,5.28082 0.5792,7.83854 l -8.10884,10.50287 c -1.97682,2.55787 -5.42743,3.16407 -7.7227,1.39009 -2.29507,-1.77468 -2.5562,-5.24229 -0.5792,-7.79993 l 8.10884,-10.50287 c 1.23546,-1.59862 3.04624,-2.45619 4.78807,-2.43265 z m 237.04827,1.93067 c -1.17648,0.11208 -2.21321,0.77751 -2.62572,1.81484 l -4.36332,11.04346 c -0.62821,1.58065 0.3668,3.42579 2.23958,4.17026 l 7.79993,3.12769 c 1.09162,-1.23216 2.13979,-2.51537 3.20492,-3.78412 2.91037,-3.46678 5.69063,-7.00496 8.3019,-10.61871 -0.39248,-0.4157 -0.87721,-0.76935 -1.46731,-1.00395 l -11.19792,-4.44056 c -0.4682,-0.18613 -0.9292,-0.29178 -1.39008,-0.30891 -0.17283,-0.006 -0.33391,-0.016 -0.50198,0 z m -36.95312,10.30981 c 0.2096,-0.0181 0.43933,-0.009 0.65643,0 0.57895,0.0249 1.18703,0.15192 1.77622,0.38613 l 14.09393,5.59896 c 2.35673,0.93693 3.6296,3.27032 2.8574,5.21282 l -5.40589,13.59196 c -0.77232,1.94248 -3.28091,2.75172 -5.63757,1.81483 l -14.09393,-5.59896 c -2.35688,-0.93695 -3.62973,-3.27031 -2.8574,-5.21282 l 5.40589,-13.59195 c 0.50677,-1.2748 1.73768,-2.07444 3.20492,-2.20097 z m -236.93243,2.04651 c 7.1762,9.04592 15.32154,17.5152 24.40373,25.29185 1.95318,0.41605 3.91913,0.77265 5.90787,1.04256 11.14671,2.10416 22.58534,2.7573 33.86404,0.46336 15.29276,-2.37939 32.14987,-6.2146 46.52927,1.11979 12.27259,6.99982 20.30374,19.2196 30.96802,28.07202 2.92055,2.17534 8.03701,3.5419 10.92762,0.5792 2.45681,-4.58413 -1.7894,-9.12085 -4.44055,-12.39493 -8.45977,-10.7421 -18.59251,-20.49206 -30.54328,-27.22252 -16.61213,-8.38274 -36.35256,-6.70854 -54.56087,-4.59501 -14.24086,2.00777 -29.05442,3.13077 -42.70653,-1.69899 -7.39631,-2.2479 -14.1674,-6.05722 -20.34932,-10.65733 z m 238.12945,0.54059 c -1.16907,0.11206 -2.1747,0.77741 -2.5871,1.81484 l -4.40194,11.04346 c -0.62842,1.58067 0.36681,3.46438 2.23958,4.20887 l 11.19792,4.44055 c 1.87282,0.74473 3.88956,0.0748 4.51778,-1.50592 l 4.40193,-11.04346 c 0.62824,-1.58076 -0.40523,-3.46436 -2.27819,-4.20888 l -11.19792,-4.44055 c -0.46814,-0.18613 -0.92924,-0.29178 -1.39008,-0.30891 -0.17282,-0.006 -0.33497,-0.016 -0.50198,0 z m 26.45025,10.50288 c -1.17652,0.11208 -2.21335,0.77747 -2.62572,1.81483 l -4.36332,11.04346 c -0.32468,0.81678 -0.20762,1.73032 0.23168,2.50988 4.80265,-4.04416 9.41953,-8.36175 13.86224,-12.97414 l -5.21282,-2.08513 c -0.46819,-0.18612 -0.92921,-0.29178 -1.39009,-0.3089 -0.17282,-0.006 -0.3339,-0.016 -0.50197,0 z m -35.98778,13.51472 c -1.17648,0.11207 -2.21336,0.77753 -2.62572,1.81483 l -4.36333,11.04347 c -0.62829,1.5808 0.36664,3.4645 2.23959,4.20887 l 7.83854,3.08908 c 3.51127,-2.0217 6.95548,-4.17515 10.34842,-6.44846 l 1.89206,-4.74946 c 0.62843,-1.58067 -0.36674,-3.46444 -2.23959,-4.20887 l -11.19791,-4.44055 c -0.46819,-0.18614 -0.92922,-0.29178 -1.39009,-0.30891 -0.17282,-0.006 -0.3339,-0.016 -0.50197,0 z m -133.48687,4.94253 c 1.04511,0.0141 2.07385,0.33878 2.93463,1.00395 2.29485,1.77449 2.55633,5.28087 0.5792,7.83854 l -11.7385,15.1751 c -1.97677,2.55795 -5.42732,3.2035 -7.7227,1.4287 -2.29513,-1.7747 -2.55618,-5.24226 -0.57921,-7.79992 l 11.73851,-15.21372 c 1.23553,-1.59866 3.04621,-2.45618 4.78807,-2.43265 z m 20.61961,14.05531 c 0.0485,0.25521 0.0468,0.51596 0,0.77227 -4.84542,6.32729 -9.67791,12.66621 -14.51868,18.99784 -0.20528,0.21293 -0.39321,0.45703 -0.5792,0.69505 0.0243,0.006 0.0529,-0.006 0.0772,0 0.17643,-0.22436 0.38665,-0.45655 0.5792,-0.65643 4.84131,-6.33125 9.63409,-12.59291 14.48006,-18.92062 0.0524,-0.28648 0.0322,-0.59785 -0.0386,-0.88811 z"
       id="path3118"
       inkscape:connector-curvature="0" />
    <path
       style="font-size:566.41790771px;font-style:normal;font-variant:normal;font-weight:bold;font-stretch:normal;text-align:start;line-height:125%;letter-spacing:0px;word-spacing:0px;writing-mode:lr-tb;text-anchor:start;fill:#1000ff;fill-opacity:1;stroke:none;font-family:Aharoni;-inkscape-font-specification:Aharoni Bold"
       d="m 47.445661,526.35171 0,26.41164 c 6.446119,-2.82844 13.830564,-4.54925 21.469105,-4.74946 19.591328,-0.51357 38.613354,10.04235 43.710484,37.22341 34.21577,-4.94612 39.61559,45.29821 13.28304,54.98562 l 0.30891,9.7306 0.65643,21.4305 -20.11763,0.61781 -0.61782,-21.43049 -58.692519,1.77622 0,2.89601 55.062849,-1.66038 1.77622,58.80836 -56.839069,1.699 0,205.61688 c 0.314864,-2.37391 1.046827,-4.68526 2.162356,-6.8732 6.527213,15.04949 30.306815,25.87067 58.924203,26.75915 28.38974,0.87996 52.58256,-8.25747 60.23706,-22.66612 l 0,-5.1356 c -7.78856,14.29256 -31.89004,24.1982 -60.12122,23.32256 -34.090583,-1.05727 -61.25196,-17.43849 -60.66181,-36.56699 0.391732,-12.70891 12.942281,-23.41908 31.315548,-28.8829 l 0.810883,-26.48886 c 0.04267,-1.38379 0.48522,-2.62793 1.235632,-3.66828 1.257157,-1.7454 3.319439,-2.79827 5.637571,-2.74156 3.690351,0.11441 6.562132,3.14472 6.448454,6.83459 l -0.733656,23.1681 c 5.730453,-0.79827 11.841208,-1.15987 18.109728,-0.96534 6.26949,0.19447 12.28426,0.93312 17.95528,2.08513 l 0.73366,-23.1681 c 0.11384,-3.69003 3.14428,-6.56299 6.83459,-6.44845 3.69027,0.11433 6.56225,3.1446 6.44845,6.83459 l -0.81088,26.48886 c 12.7692,4.67587 22.396,11.82722 26.79777,20.11763 l 0,-148.62336 -34.98384,35.83333 c -1.7186,1.76081 -4.91891,1.56579 -7.10488,-0.46336 l -12.74245,-11.85434 c -2.186,-2.0291 -2.56812,-5.11238 -0.8495,-6.87321 l 55.68067,-57.03214 0,-176.34785 -121.323619,0 z m 21.469105,29.57794 c -7.824293,0.0652 -15.284409,2.36205 -21.469105,5.86926 l 0,25.36906 52.977719,-1.62176 1.11979,37.03034 -54.097509,1.66038 0,2.89602 57.920249,-1.77622 -0.65643,-21.4305 20.07902,-0.5792 0.65643,21.39188 0.46336,15.40679 c 12.24927,-9.42464 13.28968,-29.13487 6.95043,-39.42439 -4.54107,-7.37116 -12.82387,-9.08247 -24.82848,-6.75736 -4.48155,-26.78623 -21.401738,-38.1821 -39.115474,-38.0343 z m 26.874996,34.48186 -48.344101,1.46731 0,27.53143 49.154984,-1.46732 -0.810883,-27.53142 z m 1.54454,68.30728 -49.888641,1.50592 0,7.18212 40.312493,-1.23564 0.154454,5.32867 -40.466947,1.23563 0,3.39799 31.238321,-0.96534 0.154454,5.32866 -31.392775,0.96534 0,3.39799 21.7394,-0.65643 0.154454,5.32866 -21.893854,0.65643 0,3.39799 41.084763,-1.23563 0.154454,5.32866 -41.239217,1.23563 0,10.54149 51.394567,-1.54454 -1.505926,-49.1936 z m 13.514728,103.32972 c -1.71862,1.76079 -1.37483,4.80551 0.81088,6.83459 l 12.81968,11.85435 c 2.18588,2.02908 5.30907,2.26278 7.02766,0.50197 l -10.69594,10.96624 c -1.71859,1.76081 -4.46413,1.05095 -7.02766,-0.50198 -5.11042,-3.09579 -9.20397,-7.22622 -12.81968,-11.85434 -1.825868,-2.34038 -2.529635,-5.07377 -0.81088,-6.83459 l 10.69594,-10.96624 z m -3.43661,9.34447 c -0.10774,0.19077 -0.2319,0.3964 -0.38613,0.5792 0.15347,-0.18288 0.31651,-0.38857 0.42475,-0.5792 -0.0115,0.008 -0.0224,-0.007 -0.0386,0 z m -10.000891,7.60686 0.03861,0 c 0.284072,0.96704 1.020953,1.79999 1.698994,2.74156 3.452194,4.79451 7.459334,8.97437 12.781064,11.85434 1.03663,0.56092 1.88655,1.3182 2.89602,1.54454 -0.0476,0.0424 -0.14192,0.11454 -0.19307,0.15445 l -15.870149,12.16326 c -1.641908,1.26236 -4.035994,1.31566 -5.869252,-0.38614 l -6.602908,-6.10093 c -1.833282,-1.70182 -1.906815,-4.05334 -0.695043,-5.7148 l 11.69989,-16.10183 c 0.03716,-0.052 0.07544,-0.10639 0.115841,-0.15445 z m -12.781069,24.01759 6.255387,5.79203 -4.826687,4.94253 c -0.201791,0.84833 -8.87138,2.53294 -12.549387,0.61781 L 84.63046,803.01743 z m 2.239583,36.6056 c -1.247308,-0.0386 -2.371573,0.5261 -3.050466,1.46731 -0.407413,0.56452 -0.59471,1.25953 -0.617816,2.00791 -0.06137,1.99559 1.479385,3.64499 3.475215,3.70689 1.99583,0.0618 3.645361,-1.47951 3.706896,-3.47521 0.06146,-1.99549 -1.518061,-3.64487 -3.513829,-3.7069 z m 48.807467,1.50593 c -1.26548,0.15269 -2.34239,0.96525 -2.8574,2.08513 -0.19616,0.42666 -0.29347,0.92991 -0.30891,1.4287 -0.0614,1.99559 1.47938,3.64499 3.47521,3.70689 1.9957,0.062 3.72259,-1.51812 3.78413,-3.51383 0.0611,-1.99501 -1.51811,-3.64486 -3.51383,-3.70689 -0.18711,-0.006 -0.39842,-0.0218 -0.5792,0 z m -29.4621,30.23437 c -4.7417,0.0731 -9.311899,0.49225 -13.669182,1.1584 l -0.65643,22.12554 c -0.11369,3.68989 -3.182926,6.60161 -6.873203,6.48707 -3.690165,-0.11444 -6.562132,-3.22184 -6.448454,-6.91182 l 0.540589,-18.57309 c -9.972019,3.30996 -17.696066,8.34421 -21.623559,14.36422 -1.7867,2.73862 -2.760649,5.6788 -2.857399,8.76526 -0.494624,16.06018 23.977908,29.86559 54.638098,30.81357 30.65869,0.94713 55.87283,-11.30133 56.37571,-27.37697 0.31191,-10.07342 -9.17106,-19.22472 -23.86314,-24.9057 l -0.5792,18.882 c -0.11376,3.69005 -3.14439,6.563 -6.83459,6.44845 -3.69046,-0.11433 -6.60087,-3.18323 -6.48707,-6.8732 l 0.73366,-22.3186 c -5.49222,-1.13596 -11.42877,-1.85603 -17.56915,-2.04652 -1.61824,-0.0501 -3.24611,-0.063 -4.82668,-0.0386 z m -53.904448,52.39852 c 0.956033,6.02682 4.617853,10.17696 5.598957,11.12068 1.343095,2.56377 0.609982,5.64752 1.158405,8.41775 1.915155,14.86485 10.633688,28.89948 23.515621,36.72143 3.856951,2.50886 8.163956,4.01483 12.394933,5.75342 2.351297,1.06855 3.536886,3.55341 3.359375,6.06232 0.02023,0.33611 0.054,0.6673 0.07723,1.00395 l 16.75826,0 c 0.008,-0.56196 0.016,-1.09109 0.11584,-1.62177 1.38267,-1.60495 2.31942,-3.70583 3.97719,-4.98114 9.68286,-2.11657 18.49815,-7.34124 25.33045,-14.48006 3.52142,-3.75136 6.32525,-8.15605 8.76527,-12.66523 2.83088,-5.86607 4.41684,-12.26193 5.09698,-18.72755 0.43636,-3.09586 3.25293,-4.84879 4.55639,-7.52963 0.52782,-0.87036 3.79182,-6.64197 4.13165,-7.60686 -10.38015,11.16854 -22.52428,15.82479 -33.55513,17.68498 -11.61332,2.39434 -23.60727,2.51722 -35.369968,1.27425 -11.434377,-1.35278 -22.826867,-4.20076 -33.091769,-9.53754 -2.044773,-1.09705 -9.688639,-7.27387 -12.781068,-10.889 l -0.03861,0 z m -4.865301,1.04256 0,68.03699 45.602542,0 c -0.04374,-0.75746 -0.08558,-1.51134 -0.11584,-2.2782 -22.838025,-6.81909 -39.440335,-28.1227 -39.694677,-53.2094 -3.253815,-3.88475 -5.234174,-8.12333 -5.792025,-12.54939 z m 121.323619,8.72665 c -1.18616,2.55834 -2.8731,4.99508 -5.01976,7.25934 -1.81334,25.16883 -19.83609,45.47519 -43.24712,50.73814 -0.006,0.44476 -0.002,0.87747 0,1.31286 l 48.26688,0 0,-59.31034 z"
       id="text4092"
       inkscape:connector-curvature="0" />
    <path
       style="font-size:566.41790771px;font-style:normal;font-variant:normal;font-weight:bold;font-stretch:normal;text-align:start;line-height:125%;letter-spacing:0px;word-spacing:0px;writing-mode:lr-tb;text-anchor:start;fill:#1000ff;fill-opacity:1;stroke:none;font-family:Aharoni;-inkscape-font-specification:Aharoni Bold"
       d="m 648.73507,526.35171 0,101.51489 69.81321,0 -2.35543,-5.48311 12.89691,-9.84645 9.69199,7.68409 c 1.98151,-0.95042 4.02645,-1.79329 6.13955,-2.50988 l 1.50592,-12.24048 16.10183,-2.04651 4.51778,11.46821 0.0772,0 c 2.13114,0.16482 4.26509,0.48534 6.33261,0.88811 l 7.60686,-9.84644 14.94343,6.33261 -1.66039,12.27909 c 1.7182,1.18583 3.36736,2.4523 4.94253,3.82274 l 11.50683,-4.67224 9.84644,12.89691 -7.60686,9.80783 c 0.89222,1.87355 1.63297,3.83938 2.31681,5.83064 l 12.3177,1.69899 2.04652,16.10183 -11.54544,4.74946 c -0.16641,2.07706 -0.37938,4.16181 -0.77227,6.17816 l 9.80783,7.56825 -6.294,14.98204 -12.35632,-1.73761 c -1.18761,1.72432 -2.48826,3.40085 -3.86135,4.98114 l 4.78808,11.54544 -12.89691,9.76921 -9.84644,-7.52963 c -1.88064,0.89644 -3.83163,1.70738 -5.83064,2.39404 l -1.66038,12.24048 -16.10183,2.04651 -4.67224,-11.42959 c -2.20024,-0.16993 -4.35522,-0.50281 -6.48706,-0.92673 l -4.47917,5.94648 0,185.42202 c 3.3177,-3.25348 6.66872,-5.11643 8.3019,-4.94252 l -1.69899,-6.79598 c 11.54453,4.22323 14.83093,6.00133 22.08692,10.23258 l -18.41864,14.71174 c 1.35308,-8.56809 4.24749,-13.36027 4.24749,-13.36027 -4.87751,-1.10629 -12.59615,4.85444 -14.51868,13.24443 l 0,7.7227 c 1.79279,7.95133 9.49453,16.6791 28.38092,23.36117 -3.34448,0.77943 -6.42987,1.45944 -8.14745,1.66038 1.28053,2.4196 2.51323,3.41956 4.5564,6.83459 -11.57307,-4.67651 -19.52567,-9.72114 -24.78987,-14.82759 l 0,38.76796 121.32361,0 0,-96.57236 c -1.46081,0.30947 -2.94879,0.58976 -4.47916,0.81088 -5.20673,-0.97259 -7.65189,-5.12765 -4.05442,-6.21677 2.99986,-0.19554 5.84009,-0.63501 8.53358,-1.23564 l 0,-4.74946 c -3.85037,1.38457 -7.95562,2.46105 -12.3177,3.20492 -5.43347,-0.82493 -7.86565,-4.98861 -4.05442,-6.21677 6.02238,-0.56562 11.44872,-1.88856 16.37212,-3.89996 l 0,-6.33262 c -8.6575,4.60117 -17.99536,6.8289 -24.13343,4.51778 -8.56387,-22.46636 -42.42011,-17.55028 -66.76274,-49.57973 -15.99994,-24.61132 -7.91891,-58.23283 18.0325,-75.10326 9.73162,-6.32637 20.57584,-9.42821 31.19971,-9.49892 16.00067,-0.10648 31.45375,6.61954 41.66396,19.26814 l 0,-133.37103 100.47233,0 0,-101.51489 -25.90966,0 c -14.12777,8.09942 -37.54963,21.48521 -38.80657,21.81663 -1.68117,0.4433 13.58217,9.74034 15.25234,10.61871 1.6717,0.87875 -42.59613,23.94591 -42.86099,25.21462 -0.26493,1.2687 10.96624,10.77316 10.96624,10.77316 l -49.07776,30.92942 c 0,0 21.61576,-27.4091 22.5889,-28.26508 0.97309,-0.8558 -15.98599,-10.69594 -15.98599,-10.69594 0,0 30.67017,-22.78212 32.20366,-23.78592 1.53359,-1.00378 -27.06807,-13.28304 -27.06807,-13.28304 l 19.7315,-23.32256 -93.36744,0 c 3.03049,2.77403 5.70838,5.98335 7.95438,9.65338 0.0953,0.065 0.10817,0.10058 0.50198,0.15445 0.48722,0.0667 1.47671,0.1387 2.89601,0.19307 0.0754,0.002 0.0762,-0.002 0.15445,0 9.73056,-0.2729 19.68121,-0.55101 29.61656,2.70294 l 0.0772,0.0386 0.0772,0.0386 c 6.66059,2.63879 12.48899,7.94576 14.287,15.32956 0.91198,3.74476 0.66612,7.80555 0.19306,11.4296 -0.47306,3.62404 -1.23284,6.85045 -1.50592,8.45635 l -0.34753,2.04652 -1.42869,-0.0386 c -0.19287,10.33298 -7.18125,19.44167 -17.29885,21.27604 -9.18764,1.66612 -17.97992,-3.24044 -22.35722,-11.35237 -42.89947,7.70045 -61.66178,11.08574 -86.33978,15.40679 -1.29167,9.12424 -7.80991,16.83147 -16.98994,18.49587 -10.86239,1.96975 -21.21672,-5.24405 -24.28789,-16.10183 -0.8922,0.24298 -1.61914,0.50352 -3.32076,0.61781 -1.24756,0.0838 -2.88068,-0.22224 -4.13165,-1.27424 -1.25096,-1.05201 -2.06874,-2.59092 -2.66433,-4.63362 l 0,-0.11584 -0.0386,-0.11584 c -2.29492,-12.80245 2.82629,-25.16194 12.43354,-32.01059 0.34488,-13.73807 6.96489,-25.54275 16.95133,-34.44325 2.31622,-2.06434 4.81492,-3.99222 7.4524,-5.75341 l -40.11942,0 z m 49.61835,0 c -5.06433,2.62589 -9.72054,5.75638 -13.74641,9.34447 -9.51118,8.47691 -15.49458,19.32385 -15.4454,32.08782 l 0,1.31286 -1.08118,0.73365 c -8.56052,5.55539 -13.3318,16.37193 -11.31375,27.80172 0.41438,1.29481 0.84598,1.95843 1.04256,2.12375 0.21094,0.17743 0.23387,0.18546 0.69504,0.15445 0.55858,-0.0375 1.6032,-0.37934 2.8574,-0.65643 -0.1461,-2.14461 -0.10614,-4.27033 0.30891,-6.294 0.002,-0.0122 -0.002,-0.0263 0,-0.0386 0.28979,-1.40127 0.70268,-2.75393 1.23563,-4.05442 0.005,-0.0105 -0.005,-0.0275 0,-0.0386 0.53964,-1.3108 1.20416,-2.53445 1.96929,-3.7069 0.76973,-1.18345 1.64879,-2.27559 2.62572,-3.28215 0.43955,-0.45287 0.95047,-0.82393 1.4287,-1.23563 1.62974,-1.40369 3.418,-2.63468 5.4445,-3.47522 1.3119,-0.54479 2.68085,-0.93397 4.13165,-1.19701 5.80262,-1.05193 11.48685,0.49101 15.98599,3.82273 1.1249,0.83315 2.16669,1.77647 3.12769,2.81879 1.92178,2.08418 3.48802,4.57129 4.55639,7.33656 0.53419,1.38264 0.96425,2.84931 1.23563,4.36333 0.15205,0.8483 0.13413,1.66883 0.19307,2.50988 23.96001,-4.19761 42.97524,-7.59663 84.33188,-15.02066 -0.2381,-0.81193 -0.54238,-1.58096 -0.69504,-2.43265 -0.81421,-4.54254 -0.26482,-9.0339 1.35147,-12.97413 0.53811,-1.31354 1.205,-2.57042 1.96929,-3.74551 0.76966,-1.18335 1.64888,-2.27566 2.62572,-3.28215 1.9332,-1.99186 4.25862,-3.62512 6.8732,-4.71085 1.31213,-0.54467 2.68098,-0.93398 4.13165,-1.19701 4.35209,-0.78918 8.62745,-0.13369 12.39493,1.66038 1.26766,0.60086 2.45647,1.32216 3.59106,2.16235 1.1249,0.83314 2.16669,1.77647 3.12769,2.81879 1.82721,1.98162 3.30169,4.34847 4.36332,6.95043 0.10865,-0.66166 0.21785,-1.03971 0.30891,-1.73761 0.43559,-3.33649 0.54886,-6.96267 -0.11584,-9.69199 -1.34171,-5.50994 -5.81141,-9.73421 -11.23653,-11.93157 -8.99931,-2.94739 -18.42447,-2.78393 -28.18785,-2.50988 l -0.0772,0 -0.0772,0 c -1.53402,-0.0584 -2.54745,-0.0607 -3.51383,-0.19306 -0.96639,-0.13236 -1.99927,-0.494 -2.78018,-1.04257 l -0.42474,-0.30891 -0.2703,-0.46336 c -3.06309,-5.24486 -7.16063,-9.46784 -11.97018,-12.78107 l -70.97161,0 z m 33.78681,4.63362 0.30891,0.0386 c 6.79459,0.35545 11.38547,3.11381 14.13254,6.37122 l 14.09392,-2.23958 c 0.0266,-0.005 0.0507,0.005 0.0772,0 1.16342,-0.19928 2.29139,-0.13044 3.35937,0.2703 1.09238,0.40989 2.34759,1.34439 2.62572,2.89601 l 2.93463,16.48796 c 0.27572,1.55 -0.54983,2.86374 -1.4287,3.62967 -0.85681,0.74671 -1.89508,1.16753 -3.05047,1.39009 l 0,0.0386 -0.0772,0 -13.97809,2.8574 c -1.4334,4.02474 -4.78206,8.23923 -11.04346,10.96623 l -0.2703,0.11584 -0.27029,0.0386 c -5.39152,0.978 -10.32938,1.87543 -18.72755,3.39799 l -2.39403,0.42474 -0.42475,-2.35542 -0.50198,-2.8574 -13.4375,2.47127 c -1.19169,0.21605 -2.38284,0.13966 -3.47521,-0.2703 -1.09237,-0.40996 -2.309,-1.3445 -2.58711,-2.89601 -0.27602,-1.55025 0.54787,-2.86805 1.4287,-3.62967 0.88084,-0.76162 1.94148,-1.2136 3.1277,-1.4287 l 13.47611,-2.43265 -2.8574,-15.98599 -13.47611,2.47126 c -1.18639,0.21521 -2.3439,0.135 -3.4366,-0.27029 -1.09271,-0.40529 -2.30899,-1.34439 -2.58711,-2.89601 -0.27607,-1.55028 0.54981,-2.86374 1.4287,-3.62967 0.87889,-0.76593 1.93599,-1.21266 3.1277,-1.4287 l 13.47611,-2.43265 -0.54059,-2.8574 2.0079,-0.34752 -0.0386,-2.43265 c 8.39817,-1.52245 13.33601,-2.42049 18.72754,-3.39799 l 0.2703,-0.0772 z m 0.23168,4.8653 c -4.6,0.83401 -9.52693,1.71803 -16.0246,2.89602 l 0.50197,2.8574 0.19307,1.11979 0.23168,1.23563 0.19307,1.11979 3.70689,20.69684 0.19307,1.11979 0.0386,0 0.42475,2.35542 0.50198,2.8574 c 6.46083,-1.17128 11.40729,-2.06548 15.98599,-2.89601 5.74074,-2.55309 8.04049,-6.21298 8.72665,-9.11279 l 0.34752,-1.50592 1.50593,-0.30891 15.32956,-3.1277 0.0386,0 c 0.29384,-0.0533 0.42942,-0.14926 0.5792,-0.23168 l -2.74156,-15.02065 c -0.16881,-0.0195 -0.27738,-0.0477 -0.54059,0 l -0.0386,0 -0.0386,0 -15.4454,2.43265 -1.54454,0.23168 -0.8495,-1.27424 c -1.64469,-2.46818 -5.02735,-5.06215 -11.27514,-5.44451 z m 75.99136,22.04831 c -1.07813,-0.0381 -2.18459,0.0355 -3.28214,0.23168 -0.0129,0.002 -0.0258,-0.002 -0.0386,0 -2.20687,0.40559 -4.25462,1.29375 -6.0237,2.50988 -0.88898,0.61148 -1.72071,1.30784 -2.47127,2.08513 -0.75116,0.77722 -1.41351,1.63165 -2.0079,2.54849 -1.18748,1.83384 -2.06008,3.90419 -2.50988,6.13955 -0.44973,2.23535 -0.47371,4.63877 -0.0386,7.06627 0.25165,1.40379 0.66485,2.71441 1.19702,3.97719 3.0862,7.38719 10.51426,11.84164 18.10973,10.46426 8.8848,-1.61086 14.79163,-10.63936 13.05136,-20.34932 -0.21759,-1.21381 -0.54432,-2.37543 -0.96533,-3.47521 -0.65963,-1.72304 -1.58798,-3.24684 -2.66434,-4.63362 -0.29272,-0.37596 -0.56944,-0.77191 -0.88811,-1.11979 -0.74917,-0.81786 -1.55873,-1.58964 -2.43265,-2.23959 -2.62172,-1.94982 -5.76331,-3.08963 -9.03556,-3.20492 z m -125.68693,22.51167 c -1.09077,-0.0384 -2.21017,0.0303 -3.32077,0.23168 -1.11057,0.20136 -2.15734,0.54583 -3.1663,0.96534 -2.01608,0.83729 -3.82719,2.07858 -5.32867,3.62967 -0.75054,0.77729 -1.41416,1.63158 -2.0079,2.54849 -0.59448,0.91489 -1.08611,1.86784 -1.50592,2.89601 -0.41982,1.02817 -0.77722,2.12816 -1.00396,3.24354 -0.22914,1.1273 -0.33454,2.28558 -0.34752,3.47521 -9.9e-4,0.0892 0.0383,0.18084 0.0386,0.2703 0.004,1.09291 0.0692,2.19882 0.27029,3.32076 1.74055,9.71074 10.42296,16.05241 19.30675,14.44145 7.35047,-1.33268 12.60945,-7.73898 13.24443,-15.40679 0.13488,-1.58124 0.0941,-3.22286 -0.19307,-4.8653 -0.002,-0.0129 0.002,-0.0256 0,-0.0386 -0.002,-0.013 0.002,-0.0256 0,-0.0386 -0.21753,-1.2002 -0.54868,-2.34817 -0.96533,-3.4366 -0.42107,-1.09991 -0.94623,-2.15971 -1.54454,-3.12769 -0.5982,-0.9678 -1.25874,-1.84648 -2.00791,-2.66433 -1.49862,-1.63614 -3.26772,-2.97144 -5.21282,-3.89997 -0.97242,-0.46406 -2.00575,-0.82094 -3.05046,-1.08118 -1.04478,-0.26037 -2.11416,-0.42481 -3.20492,-0.46336 z m 79.08044,49.54112 c -1.36823,0.0323 -2.74347,0.13283 -4.13164,0.30891 -3.56371,0.45213 -6.94114,1.36894 -10.11674,2.66433 l 0,9.03556 c 3.36259,-1.81145 7.1032,-3.08133 11.12069,-3.59106 10.26347,-1.30197 20.01139,2.39739 26.75915,9.22863 l 2.04652,-9.03556 c -7.12618,-5.6186 -16.10035,-8.83724 -25.67798,-8.61081 z m 28.84429,10.50287 -2.50988,10.88901 -2.39404,10.92762 7.29795,-2.23958 c 0.6272,1.9067 1.08903,3.91732 1.35147,5.98509 2.21972,17.49592 -10.19165,33.45932 -27.68587,35.67887 -6.87406,0.87208 -13.49182,-0.53225 -19.1523,-3.59105 l 0,9.03556 c 6.18868,2.5289 13.0869,3.56594 20.19486,2.66433 21.97525,-2.78798 37.54017,-22.85497 34.75215,-44.83027 -0.32493,-2.56067 -0.88868,-5.01012 -1.66038,-7.37518 l 6.25539,-1.96929 -8.18607,-7.64547 -8.26328,-7.52964 z m -28.34231,6.21678 c -0.79946,0.02 -1.58358,0.0902 -2.39404,0.19306 -4.73625,0.60086 -8.9732,2.56582 -12.35632,5.44451 l 0,35.98778 c 4.89126,4.17525 11.41915,6.39515 18.3028,5.52173 12.96707,-1.64515 22.14891,-13.48255 20.50377,-26.45025 -1.54244,-12.15712 -12.06443,-20.99704 -24.05621,-20.69683 z m 65.06374,102.403 c -9.56446,0.006 -19.07128,2.66712 -26.99083,7.99299 -0.60349,0.40563 -1.23069,0.83739 -1.81484,1.27425 -19.95584,12.47386 -28.63294,41.5715 -16.06321,62.32218 9.50696,15.64969 26.96152,23.38334 43.05405,30.69774 9.20404,4.15307 18.48734,9.52748 23.51562,18.68893 4.45645,0.23972 8.66179,-0.80967 12.62661,-2.58711 -0.73326,-0.98587 -1.74178,-2.47335 -3.4366,-4.98114 -1.32998,-1.97782 -2.73627,-4.03112 -3.12769,-4.55639 -2.48896,-3.33528 -5.58408,-6.98789 -8.37913,-9.92367 -6.83951,-7.18352 -16.11113,-14.86857 -25.176,-20.8899 -1.45949,-0.96945 -1.93985,-1.37459 -3.20492,-2.74156 -0.55551,-0.60044 -0.84975,-1.01571 -1.54454,-2.08513 -0.76774,-1.18113 -0.87901,-1.36294 -1.08118,-1.96929 -0.32042,-0.96006 -0.42407,-1.59217 -0.38614,-2.93462 0.0561,-1.97732 0.47597,-3.4951 1.31286,-4.94253 0.56707,-0.98243 1.12119,-1.57752 2.04652,-2.23958 1.19629,-0.85507 1.95011,-1.14621 3.66828,-1.35148 0.53321,-0.0637 1.00778,-0.10472 1.08118,-0.11584 0.28187,-0.0437 0.59964,-0.71308 0.88811,-1.96929 0.24672,-1.07413 0.34123,-1.34335 0.69504,-1.93067 0.22402,-0.37232 0.60136,-0.88638 0.8495,-1.15841 0.56613,-0.61836 1.80593,-1.51347 2.62572,-1.89206 0.70595,-0.32612 1.79271,-0.62208 2.43265,-0.65643 0.40321,-0.0234 0.50527,-0.0331 0.73365,-0.23168 0.48466,-0.41963 0.62557,-0.87287 0.88812,-2.78017 0.1157,-0.84072 0.36086,-1.25106 1.23563,-2.08513 0.90808,-0.86773 2.62995,-1.96733 3.32076,-2.16235 1.177,-0.33241 2.12014,-0.22804 3.16631,0.38613 0.93909,0.55203 1.33202,0.8443 1.66038,1.35147 0.30527,0.46962 0.45903,1.08758 0.38613,1.50593 -0.0576,0.33007 -0.18631,0.34044 -0.5792,0.15445 -0.67684,-0.32017 -1.28633,-0.49703 -1.699,-0.50197 -0.3752,-0.005 -0.48996,0.0244 -0.92672,0.30891 -1.15151,0.74863 -1.85969,2.17115 -2.08513,4.13164 -0.12904,1.12258 -0.0382,1.64642 0.38614,2.97324 0.18999,0.59354 0.36865,1.28731 0.42474,1.54454 0.13391,0.61899 0.005,1.41538 -0.3089,1.89206 -0.30171,0.45648 -1.02805,1.00562 -1.46732,1.11979 -0.43956,0.11481 -1.07657,-0.0642 -1.93067,-0.5792 -1.9372,-1.1673 -2.78727,-1.38424 -3.66828,-0.81088 -0.43516,0.2828 -0.62287,0.57704 -0.8495,1.54454 -0.18373,0.78499 -0.21698,1.56253 -0.15445,3.20492 0.0284,0.74353 0.0131,1.51083 -0.0386,1.69899 -0.10152,0.36608 -0.49961,0.89513 -0.8495,1.11979 -0.33297,0.21649 -0.70303,0.21741 -1.35147,0.0772 -0.58166,-0.1258 -0.79154,-0.22088 -2.54849,-1.00395 -0.82011,-0.36574 -1.84921,-0.58965 -2.31681,-0.54059 -0.73002,0.0764 -1.36951,0.61662 -1.77622,1.54454 -1.22772,2.80125 -0.14583,5.39916 3.51383,8.37913 1.17747,0.95876 2.13473,1.65346 4.78807,3.39799 1.1303,0.74308 2.43186,1.62611 2.8574,1.93067 1.01759,0.72818 6.20198,4.86312 8.22468,6.5643 11.0226,9.27033 18.01252,17.49542 22.82058,26.79776 0.78566,1.51998 1.39146,2.84111 1.81483,3.93858 1.45997,-0.79469 2.85217,-1.70286 4.24748,-2.62572 l 0,-89.08134 c -6.68192,-14.42448 -21.64682,-24.21911 -37.41648,-25.06016 -1.36416,-0.10722 -2.72668,-0.15526 -4.09303,-0.15445 z m 5.01976,33.28483 c 4.37431,-0.0249 9.21299,1.20474 13.28304,3.55244 1.59906,0.92228 4.30405,3.00935 5.94648,4.5564 1.70228,1.60519 2.77181,2.91383 4.0158,4.82668 2.09121,3.22869 3.39184,6.67543 3.89997,10.46426 0.32748,2.44148 0.36458,4.75869 0.19307,10.38703 -0.0533,1.74478 -0.0834,3.7401 -0.0772,4.44056 0.0307,3.56717 0.37285,6.3536 1.11979,8.84249 l 0.30891,1.00395 0.81088,1.23563 c 0.43708,0.67154 1.10073,1.6265 1.50593,2.16236 1.29905,1.72097 1.96316,3.20298 1.69899,3.82273 -0.17866,0.41894 -0.45913,0.53979 -1.00395,0.50198 -0.25258,-0.0176 -0.82239,-0.10274 -1.27424,-0.19307 -2.54211,-0.50839 -4.59353,-1.87245 -6.21678,-4.17026 -0.77862,-1.10239 -1.15916,-1.81177 -1.85345,-3.55244 -0.79905,-2.0027 -1.11818,-3.63725 -1.19701,-5.63757 -0.0436,-1.11369 -0.0121,-3.95718 0.0772,-6.294 0.27326,-7.13724 0.18522,-10.28192 -0.38613,-13.51472 -0.66366,-3.75301 -2.26425,-7.47033 -4.09303,-9.61477 -2.8987,-3.39978 -4.70336,-5.01005 -7.29795,-6.52568 -2.25925,-1.31938 -5.46267,-2.63492 -7.7227,-3.12769 -2.91512,-0.63563 -5.89768,-0.75239 -9.49893,-0.38614 -1.59028,0.16164 -1.67422,0.16724 -1.58315,0 0.0522,-0.0938 0.21247,-0.22951 0.46336,-0.38613 0.74209,-0.48484 2.21349,-1.17706 3.32076,-1.54454 1.67829,-0.55732 3.57203,-0.83818 5.56035,-0.8495 z m -31.12248,107.65444 c 14.0672,-0.0816 28.33915,14.37008 24.3265,33.13038 l 6.64152,-4.67223 -8.91971,27.26113 c 0,0 -5.62101,-9.48376 -17.33747,-24.36512 6.35666,4.1522 11.27515,2.54849 11.27515,2.54849 6.13587,-30.84681 -34.66536,-39.64935 -30.23437,-2.5871 -2.38367,-5.89146 -3.74551,-9.19002 -3.74551,-9.19002 -0.15548,0.14049 -1.05111,1.02641 -5.29005,5.29005 2.87089,-19.54589 13.01869,-27.35601 23.28394,-27.41558 z m 7.14349,55.52621 c 3.92648,7.44799 5.36728,11.31376 5.36728,11.31376 0,0 5.65634,-5.00582 7.91577,-7.60686 -4.55344,10.18578 -7.7396,24.12571 -10.42565,36.79866 -7.72743,-4.81866 -11.70268,-5.78303 -20.85129,-10.96623 l 1.4287,6.75736 -16.64241,-12.47216 22.97503,-5.17421 c 0,0 -5.80626,3.86175 -6.83459,6.21677 5.45085,3.61402 10.48569,4.31983 16.29489,6.98905 0.59112,-9.46901 3.11755,-17.15323 0.77227,-31.85614 z"
       id="text4096"
       inkscape:connector-curvature="0" />
  </g>
</svg>
